<?xml version="1.0" encoding="iso-8859-1"?>
<!-- Generator: Adobe Illustrator 19.0.0, SVG Export Plug-In . SVG Version: 6.00 Build 0)  -->
<svg version="1.1" id="Layer_1" xmlns="http://www.w3.org/2000/svg" xmlns:xlink="http://www.w3.org/1999/xlink" x="0px" y="0px"
	 viewBox="0 0 512 512" style="enable-background:new 0 0 512 512;" xml:space="preserve">
<path style="fill:#45CAE0;" d="M318.719,96.431l35.192,42.231l-96.27,105.022l-17.504-17.504l64.03-128.06
	C306.99,92.474,314.679,91.583,318.719,96.431z"/>
<path style="fill:#0AADBF;" d="M318.719,96.431c-4.04-4.849-11.729-3.956-14.551,1.689l-64.03,128.06l11.152,11.152l70.89-136.748
	L318.719,96.431z"/>
<path style="fill:#D3D3D5;" d="M493.94,146.914v114.274c3.081,5.121,6.095,10.95,8.752,17.504
	c9.759,24.07,10.059,46.446,8.752,61.263v8.752h-385.08L25.57,295.656c-3.834-2.064-2.628-7.851,1.711-8.214l90.331-8.752
	l129.609-51.844c1.101-0.44,2.1-1.099,2.938-1.937l92.221-92.221c1.768-1.768,4.206-2.696,6.703-2.548l136.619,8.036
	C490.329,138.45,493.94,142.28,493.94,146.914z"/>
<path style="fill:#45CAE0;" d="M502.692,278.691c-2.657-6.554-5.671-12.383-8.752-17.504V146.914c0-4.634-3.612-8.465-8.238-8.736
	l-73.713-4.337L283.896,269.939L117.612,322.45L23.6,293.523c0.356,0.85,1.001,1.611,1.97,2.133l100.794,53.049h385.08v-8.752
	C512.751,325.137,512.451,302.76,502.692,278.691z"/>
<g>
	<circle style="fill:#1C8B9E;" cx="343.476" cy="206.642" r="14.618"/>
	<circle style="fill:#1C8B9E;" cx="314.88" cy="237.973" r="14.618"/>
	<circle style="fill:#1C8B9E;" cx="284.708" cy="270.016" r="14.618"/>
	<circle style="fill:#1C8B9E;" cx="240.139" cy="284.631" r="14.618"/>
	<circle style="fill:#1C8B9E;" cx="200.756" cy="297.289" r="14.618"/>
	<circle style="fill:#1C8B9E;" cx="161.701" cy="308.524" r="14.618"/>
	<circle style="fill:#1C8B9E;" cx="125.786" cy="319.825" r="14.618"/>
</g>
<g>
	<path style="fill:#4E5058;" d="M314.869,245.228c-1.547,0-3.11-0.436-4.498-1.349l-60.334-39.65
		c-3.786-2.488-4.84-7.576-2.35-11.363c2.49-3.786,7.578-4.838,11.363-2.35l60.334,39.65c2.857,1.878,4.27,5.441,3.474,8.767
		C321.983,242.583,318.621,245.228,314.869,245.228z"/>
	<path style="fill:#4E5058;" d="M283.896,278.144c-2.099,0-4.2-0.801-5.802-2.402l-43.759-43.759c-3.204-3.205-3.204-8.4,0-11.604
		c3.205-3.203,8.4-3.203,11.604,0l43.759,43.759C294.752,269.192,291.074,278.144,283.896,278.144z"/>
	<path style="fill:#4E5058;" d="M240.145,291.964c-2.621,0-5.196-1.254-6.785-3.582l-28.981-42.485
		c-2.554-3.744-1.59-8.848,2.154-11.401c3.743-2.557,8.848-1.59,11.401,2.154l28.981,42.485
		C250.551,284.462,246.638,291.964,240.145,291.964z"/>
	<path style="fill:#4E5058;" d="M200.761,305.496c-3.02,0-5.925-1.673-7.358-4.562l-21.88-44.123
		c-2.013-4.06-0.353-8.983,3.706-10.997c4.059-2.012,8.983-0.353,10.997,3.706l21.88,44.123
		C210.756,298.991,206.758,305.496,200.761,305.496z"/>
	<path style="fill:#4E5058;" d="M161.704,316.733c-3.297,0-6.404-2-7.66-5.261l-15.83-41.139c-1.627-4.229,0.481-8.977,4.712-10.604
		c4.23-1.629,8.976,0.482,10.604,4.712l15.83,41.139C171.392,310.859,167.378,316.733,161.704,316.733z"/>
	<path style="fill:#4E5058;" d="M125.928,328.026c-3.823,0-7.245-2.686-8.033-6.579l-8.324-41.129
		c-0.899-4.443,1.972-8.772,6.414-9.67c4.442-0.895,8.77,1.972,9.669,6.414l8.324,41.13
		C134.993,323.204,131.041,328.026,125.928,328.026z"/>
	<path style="fill:#4E5058;" d="M343.465,214.844c-1.409,0-2.836-0.362-4.138-1.125l-72.376-42.377
		c-3.91-2.291-5.224-7.317-2.935-11.227c2.291-3.911,7.318-5.222,11.227-2.935l72.376,42.377c3.041,1.781,4.631,5.423,3.864,8.863
		C350.657,212.133,347.268,214.844,343.465,214.844z"/>
	<path style="fill:#4E5058;" d="M419.549,285.802c-4.532,0-8.205-3.672-8.205-8.205c0-75.977-62.894-99.818-63.529-100.05
		c-4.257-1.553-6.448-6.264-4.893-10.521c1.553-4.256,6.26-6.45,10.521-4.893c0.77,0.281,19.071,7.088,37.342,24.706
		c16.866,16.262,36.97,45.21,36.97,90.757C427.754,282.128,424.082,285.802,419.549,285.802z"/>
</g>
<path style="fill:#D3D3D5;" d="M126.363,339.954L21.342,287.443L1.418,333.93c-3.581,8.356-0.17,18.062,7.851,22.339l115.163,61.42
	c1.268,0.676,2.682,1.029,4.119,1.029H493.94c9.667,0,17.504-7.836,17.504-17.504v-61.263h-385.08V339.954z"/>
<path style="fill:#BDBDC0;" d="M493.94,401.216H126.363L19.33,344.132c-2.04-1.087-2.882-3.575-1.922-5.678l19.686-43.134
	l-15.752-7.876L2.274,331.936l0,0l-0.79,1.842c-3.593,8.383-0.221,18.124,7.787,22.491l0.005,0.003l0,0l115.158,61.417
	c1.268,0.676,2.682,1.029,4.119,1.029h365.388c9.668,0,17.504-7.836,17.504-17.504v-17.504
	C511.443,393.379,503.607,401.216,493.94,401.216z"/>
<path style="fill:#E9E9EA;" d="M21.342,287.443l87.518,43.759l-7.39-44.337c-0.765-4.585-4.98-7.773-9.6-7.26L21.342,287.443z"/>
<g>
</g>
<g>
</g>
<g>
</g>
<g>
</g>
<g>
</g>
<g>
</g>
<g>
</g>
<g>
</g>
<g>
</g>
<g>
</g>
<g>
</g>
<g>
</g>
<g>
</g>
<g>
</g>
<g>
</g>
</svg>
